# xmcd
#
# Track frame offsets: 
#        150
#        21925
#        38232
#        63400
#        76065
#        89225
#        105525
#        123227
#        141575
#        156612
#
# Disc length: 2253 seconds
#
# Revision: 5
# Processed by: cddbd v1.5.2PL0 Copyright (c) Steve Scherf et al.
# Submitted via: ExactAudioCopyFreeDBPlugin 1.0
#
DISCID=8b08cb0a
DTITLE=James Brown - Say It Loud - I'm Black And I'm Proud
DYEAR=1969
DGENRE=Soul
TTITLE0=Say It Loud - I'm Black And I'm Proud
TTITLE1=I Guess I'll Have To Cry, Cry, Cry
TTITLE2=Goodbye My Love (PT. 1 and 2)
TTITLE3=Shades Of Brown
TTITLE4=Licking Stick
TTITLE5=I Love You
TTITLE6=Then You Can Tell Me Goodbye
TTITLE7=Let Them Talk
TTITLE8=Maybe I'll Understand
TTITLE9=I'll Lose My Mind
EXTD=YEAR: 1969
EXTT0=
EXTT1=
EXTT2=
EXTT3=
EXTT4=
EXTT5=
EXTT6=
EXTT7=
EXTT8=
EXTT9=
PLAYORDER=
